<svg width="24" height="24" viewBox="0 0 24 24" fill="none" xmlns="http://www.w3.org/2000/svg">
<path fill-rule="evenodd" clip-rule="evenodd" d="M0 2.5C0 1.11867 1.12 0 2.5 0H8.5C9.88133 0 11 1.12 11 2.5V8.5C11 9.88133 9.88 11 8.5 11H2.5C1.83696 11 1.20107 10.7366 0.732233 10.2678C0.263392 9.79893 0 9.16304 0 8.5V2.5ZM2.5 2C2.36739 2 2.24022 2.05268 2.14645 2.14645C2.05268 2.24022 2 2.36739 2 2.5V8.5C2 8.776 2.224 9 2.5 9H8.5C8.63261 9 8.75979 8.94732 8.85355 8.85355C8.94732 8.75979 9 8.63261 9 8.5V2.5C9 2.36739 8.94732 2.24022 8.85355 2.14645C8.75979 2.05268 8.63261 2 8.5 2H2.5ZM13 2.5C13 1.11867 14.12 0 15.5 0H21.5C22.88 0 24 1.12 24 2.5V8.5C24 9.88133 22.88 11 21.5 11H15.5C14.837 11 14.2011 10.7366 13.7322 10.2678C13.2634 9.79893 13 9.16304 13 8.5V2.5ZM15.5 2C15.3674 2 15.2402 2.05268 15.1464 2.14645C15.0527 2.24022 15 2.36739 15 2.5V8.5C15 8.776 15.224 9 15.5 9H21.5C21.6326 9 21.7598 8.94732 21.8536 8.85355C21.9473 8.75979 22 8.63261 22 8.5V2.5C22 2.36739 21.9473 2.24022 21.8536 2.14645C21.7598 2.05268 21.6326 2 21.5 2H15.5ZM4 5C4 4.73478 4.10536 4.48043 4.29289 4.29289C4.48043 4.10536 4.73478 4 5 4H6C6.26522 4 6.51957 4.10536 6.70711 4.29289C6.89464 4.48043 7 4.73478 7 5V6C7 6.26522 6.89464 6.51957 6.70711 6.70711C6.51957 6.89464 6.26522 7 6 7H5C4.73478 7 4.48043 6.89464 4.29289 6.70711C4.10536 6.51957 4 6.26522 4 6V5ZM17 5C17 4.73478 17.1054 4.48043 17.2929 4.29289C17.4804 4.10536 17.7348 4 18 4H19C19.2652 4 19.5196 4.10536 19.7071 4.29289C19.8946 4.48043 20 4.73478 20 5V6C20 6.26522 19.8946 6.51957 19.7071 6.70711C19.5196 6.89464 19.2652 7 19 7H18C17.7348 7 17.4804 6.89464 17.2929 6.70711C17.1054 6.51957 17 6.26522 17 6V5ZM0 15.5C0 14.1187 1.12 13 2.5 13H8.5C9.88133 13 11 14.12 11 15.5V21.5C11 22.88 9.88 24 8.5 24H2.5C1.83696 24 1.20107 23.7366 0.732233 23.2678C0.263392 22.7989 0 22.163 0 21.5V15.5ZM2.5 15C2.36739 15 2.24022 15.0527 2.14645 15.1464C2.05268 15.2402 2 15.3674 2 15.5V21.5C2 21.776 2.224 22 2.5 22H8.5C8.63261 22 8.75979 21.9473 8.85355 21.8536C8.94732 21.7598 9 21.6326 9 21.5V15.5C9 15.3674 8.94732 15.2402 8.85355 15.1464C8.75979 15.0527 8.63261 15 8.5 15H2.5ZM13 14C13 13.7348 13.1054 13.4804 13.2929 13.2929C13.4804 13.1054 13.7348 13 14 13H15C15.2652 13 15.5196 13.1054 15.7071 13.2929C15.8946 13.4804 16 13.7348 16 14V15C16 15.2652 15.8946 15.5196 15.7071 15.7071C15.5196 15.8946 15.2652 16 15 16H14C13.7348 16 13.4804 15.8946 13.2929 15.7071C13.1054 15.5196 13 15.2652 13 15V14ZM21 14C21 13.7348 21.1054 13.4804 21.2929 13.2929C21.4804 13.1054 21.7348 13 22 13H23C23.2652 13 23.5196 13.1054 23.7071 13.2929C23.8946 13.4804 24 13.7348 24 14V15C24 15.2652 23.8946 15.5196 23.7071 15.7071C23.5196 15.8946 23.2652 16 23 16H22C21.7348 16 21.4804 15.8946 21.2929 15.7071C21.1054 15.5196 21 15.2652 21 15V14ZM4 18C4 17.7348 4.10536 17.4804 4.29289 17.2929C4.48043 17.1054 4.73478 17 5 17H6C6.26522 17 6.51957 17.1054 6.70711 17.2929C6.89464 17.4804 7 17.7348 7 18V19C7 19.2652 6.89464 19.5196 6.70711 19.7071C6.51957 19.8946 6.26522 20 6 20H5C4.73478 20 4.48043 19.8946 4.29289 19.7071C4.10536 19.5196 4 19.2652 4 19V18ZM17 18C17 17.7348 17.1054 17.4804 17.2929 17.2929C17.4804 17.1054 17.7348 17 18 17H19C19.2652 17 19.5196 17.1054 19.7071 17.2929C19.8946 17.4804 20 17.7348 20 18V19C20 19.2652 19.8946 19.5196 19.7071 19.7071C19.5196 19.8946 19.2652 20 19 20H18C17.7348 20 17.4804 19.8946 17.2929 19.7071C17.1054 19.5196 17 19.2652 17 19V18ZM13 22C13 21.7348 13.1054 21.4804 13.2929 21.2929C13.4804 21.1054 13.7348 21 14 21H15C15.2652 21 15.5196 21.1054 15.7071 21.2929C15.8946 21.4804 16 21.7348 16 22V23C16 23.2652 15.8946 23.5196 15.7071 23.7071C15.5196 23.8946 15.2652 24 15 24H14C13.7348 24 13.4804 23.8946 13.2929 23.7071C13.1054 23.5196 13 23.2652 13 23V22ZM21 22C21 21.7348 21.1054 21.4804 21.2929 21.2929C21.4804 21.1054 21.7348 21 22 21H23C23.2652 21 23.5196 21.1054 23.7071 21.2929C23.8946 21.4804 24 21.7348 24 22V23C24 23.2652 23.8946 23.5196 23.7071 23.7071C23.5196 23.8946 23.2652 24 23 24H22C21.7348 24 21.4804 23.8946 21.2929 23.7071C21.1054 23.5196 21 23.2652 21 23V22Z" fill="black"/>
</svg>
