<svg width="36" height="35" viewBox="0 0 36 35" fill="none" xmlns="http://www.w3.org/2000/svg">
<g filter="url(#filter0_d_4252_5090)">
<path d="M13.5 6.12367V17.8112M22 9.31117V20.9987M22.7126 25.9542L29.6188 22.5018C30.1586 22.2326 30.5 21.6801 30.5 21.0766V3.38951C30.5 2.20518 29.2533 1.43451 28.1937 1.96434L22.7126 4.70418C22.2635 4.92943 21.7351 4.92943 21.2874 4.70418L14.2126 1.16818C13.9913 1.05758 13.7474 1 13.5 1C13.2526 1 13.0087 1.05758 12.7874 1.16818L5.88117 4.62059C5.34 4.89118 5 5.44368 5 6.04576V23.7328C5 24.9172 6.24667 25.6878 7.30633 25.158L12.7874 22.4182C13.2365 22.1929 13.7649 22.1929 14.2126 22.4182L21.2874 25.9556C21.7365 26.1794 22.2649 26.1794 22.7126 25.9556V25.9542Z" stroke="white" stroke-width="1.5" stroke-linecap="round" stroke-linejoin="round" shape-rendering="crispEdges"/>
</g>
<defs>
<filter id="filter0_d_4252_5090" x="0.25" y="0.25" width="35" height="34.623" filterUnits="userSpaceOnUse" color-interpolation-filters="sRGB">
<feFlood flood-opacity="0" result="BackgroundImageFix"/>
<feColorMatrix in="SourceAlpha" type="matrix" values="0 0 0 0 0 0 0 0 0 0 0 0 0 0 0 0 0 0 127 0" result="hardAlpha"/>
<feOffset dy="4"/>
<feGaussianBlur stdDeviation="2"/>
<feComposite in2="hardAlpha" operator="out"/>
<feColorMatrix type="matrix" values="0 0 0 0 0 0 0 0 0 0 0 0 0 0 0 0 0 0 0.45 0"/>
<feBlend mode="normal" in2="BackgroundImageFix" result="effect1_dropShadow_4252_5090"/>
<feBlend mode="normal" in="SourceGraphic" in2="effect1_dropShadow_4252_5090" result="shape"/>
</filter>
</defs>
</svg>
