<svg width="44" height="44" viewBox="0 0 44 44" fill="none" xmlns="http://www.w3.org/2000/svg">
<g filter="url(#filter0_d_4252_5101)">
<path d="M16.0833 19.1667L20.3333 23.4167L27.4167 13.5M38.75 17.75C38.75 20.1451 37.56 22.2644 35.741 23.5451C35.937 24.6648 35.8603 25.8152 35.5173 26.8989C35.1744 27.9827 34.5753 28.9678 33.7709 29.7709C32.9678 30.5753 31.9827 31.1744 30.8989 31.5173C29.8152 31.8603 28.6648 31.937 27.5451 31.741C26.892 32.6712 26.0243 33.4304 25.0155 33.9542C24.0068 34.4779 22.8866 34.7509 21.75 34.75C19.3549 34.75 17.2356 33.56 15.9549 31.741C14.8352 31.9368 13.6848 31.86 12.6011 31.5171C11.5174 31.1741 10.5323 30.5752 9.72911 29.7709C8.92468 28.9678 8.32563 27.9827 7.98269 26.8989C7.63975 25.8152 7.56302 24.6648 7.759 23.5451C6.82877 22.892 6.06962 22.0243 5.54584 21.0155C5.02206 20.0068 4.74908 18.8866 4.75 17.75C4.75 15.3549 5.94 13.2356 7.759 11.9549C7.56302 10.8352 7.63975 9.6848 7.98269 8.60107C8.32563 7.51734 8.92468 6.53221 9.72911 5.72911C10.5323 4.92481 11.5174 4.32585 12.6011 3.98292C13.6848 3.63999 14.8352 3.56318 15.9549 3.759C16.6081 2.82888 17.4759 2.06982 18.4846 1.54605C19.4933 1.02229 20.6134 0.749234 21.75 0.750002C24.1451 0.750002 26.2644 1.94 27.5451 3.759C28.6648 3.56318 29.8152 3.63999 30.8989 3.98292C31.9826 4.32585 32.9677 4.92481 33.7709 5.72911C34.5752 6.5323 35.1741 7.51744 35.5171 8.60114C35.86 9.68485 35.9368 10.8352 35.741 11.9549C36.6712 12.608 37.4304 13.4757 37.9542 14.4845C38.4779 15.4932 38.7509 16.6134 38.75 17.75Z" stroke="white" stroke-width="1.5" stroke-linecap="round" stroke-linejoin="round" shape-rendering="crispEdges"/>
</g>
<defs>
<filter id="filter0_d_4252_5101" x="0" y="0" width="43.5" height="43.5" filterUnits="userSpaceOnUse" color-interpolation-filters="sRGB">
<feFlood flood-opacity="0" result="BackgroundImageFix"/>
<feColorMatrix in="SourceAlpha" type="matrix" values="0 0 0 0 0 0 0 0 0 0 0 0 0 0 0 0 0 0 127 0" result="hardAlpha"/>
<feOffset dy="4"/>
<feGaussianBlur stdDeviation="2"/>
<feComposite in2="hardAlpha" operator="out"/>
<feColorMatrix type="matrix" values="0 0 0 0 0 0 0 0 0 0 0 0 0 0 0 0 0 0 0.45 0"/>
<feBlend mode="normal" in2="BackgroundImageFix" result="effect1_dropShadow_4252_5101"/>
<feBlend mode="normal" in="SourceGraphic" in2="effect1_dropShadow_4252_5101" result="shape"/>
</filter>
</defs>
</svg>
